#!OML:ASF E:/inclinewalkrobotboard/Project1/Captureday1/Session1/subject1.ASF
:FULLY-SPECIFIED
:DEGREES
238
root 0 0 0 1.842686915723454 -3.8821252272140017 2.1861453225972647
lowerback 11.983041530121689 1.1600566748015058 -0.10891114281025571
upperback -4.4586925384382825 1.4563528211934373 -0.8555807883080152
thorax -11.566122013451752 0.6745581849459147 -1.127147582378589
lowerneck -6.234582909677738 1.7550589337064062 4.834570682034333
upperneck 18.173529532762988 3.289643711086078 -8.49092845563791
head 6.695834831873242 1.2243126553465715 -3.29379964325934
rclavicle -2.1422469324308057E-15 -1.1003459805602839E-15
rhumerus 23.249589790721323 17.830075967636823 -48.494502634458826
rradius 74.89226843074402
rwrist 25.82126896793619
rhand -34.81810412688315 -58.10165255927636
rfingers 7.12502
rthumb -7.960844926124754 -88.01199313167044
lclavicle -1.109998309581922E-15 -8.383062982411242E-16
lhumerus 22.43873015531547 -14.552408845335599 45.76834612134654
lradius 71.34458051511737
lwrist -21.38196886286407
lhand -45.27245708374675 -69.01849935901873
lfingers 7.125020000000012
lthumb -18.04659623789155 -39.770432999216695
rfemur -24.593327154883525 -0.8100169297156423 18.55868471460331
rtibia 45.04915064571241
rfoot -32.93388078813504 -17.871210054394425
rtoes -23.01064506354236
lfemur -26.44856900401454 1.8169986860715412 -15.4860837664568
ltibia 44.859647731185945
lfoot -32.32768516504213 3.356635614330181
ltoes -21.507356239023885
239
root 0 0 0 1.8426169202005993 -3.882137345460531 2.1858356558914847
lowerback 11.983050464936763 1.1600922768496706 -0.10864850954764205
upperback -4.458695983608751 1.4564392603806224 -0.8555141333614021
thorax -11.566140431850176 0.6745910224114864 -1.1272410789712068
lowerneck -6.234552180408054 1.7550907601610788 4.834635866273173
upperneck 18.173395081020523 3.289681025048104 -8.490983354269996
head 6.695783067289733 1.224330809819275 -3.2938182940023584
rclavicle -2.1426961817602687E-15 -1.1002073759255404E-15
rhumerus 23.24971354210573 17.83015753689567 -48.49444648462104
rradius 74.89237376267806
rwrist 25.821312532863708
rhand -34.81814192275044 -58.10181680245777
rfingers 7.12502
rthumb -7.960881504236111 -88.01217038572938
lclavicle -1.1104450303199644E-15 -8.381289574969271E-16
lhumerus 22.43909028712698 -14.553025271207419 45.76850183085105
lradius 71.34500525261132
lwrist -21.381657483703627
lhand -45.272499182753016 -69.01813295604535
lfingers 7.125020000000012
lthumb -18.04663688376628 -39.77008322962455
rfemur -24.592411759427456 -0.8089597027483446 18.56029098650927
rtibia 45.04318819380749
rfoot -32.93779112081711 -17.871906066145126
rtoes -23.010290101824587
lfemur -26.453447724205922 1.8184337609977557 -15.482791548048287
ltibia 44.87211902154456
lfoot -32.322974181031555 3.353255086523003
ltoes -21.5087243396703
240
root 0 0 0 1.84261786398717 -3.88234376972561 2.185450143617
lowerback 11.983083748749996 1.160206138770048 -0.10825913330178549
upperback -4.458680632621749 1.4566460117185125 -0.8554672593736158
thorax -11.566150988402791 0.6746793558326409 -1.1274440716569014
lowerneck -6.234600060476609 1.7550733752355174 4.834660855096356
upperneck 18.173331522302224 3.289645591579932 -8.490978133788953
head 6.695769717296326 1.2243167175527443 -3.2938193003348024
rclavicle -2.1431460483099054E-15 -1.1000660236076227E-15
rhumerus 23.250092870720387 17.830587018954205 -48.49460331810286
rradius 74.89268532413823
rwrist 25.821117331995275
rhand -34.81818607959171 -58.10195961550526
rfingers 7.12502
rthumb -7.960925223110644 -88.01232350794905
lclavicle -1.1108260942049643E-15 -8.379606445629638E-16
lhumerus 22.439330678207227 -14.553446701939317 45.76861294085916
lradius 71.34529447388488
lwrist -21.38144235871234
lhand -45.27252721101309 -69.01787905725664
lfingers 7.125020000000012
lthumb -18.046663747461658 -39.7698394788179
rfemur -24.590449322809263 -0.8075837283644653 18.562400815244178
rtibia 45.03539812803917
rfoot -32.94287159321425 -17.872606292995318
rtoes -23.01080631902191
lfemur -26.45908777994533 1.8194999055929397 -15.479424437836583
ltibia 44.88152250317729
lfoot -32.319191628374085 3.351232420474651
ltoes -21.509586107606538
241
root 0 0 0 1.8426739281921467 -3.8826879459282027 2.185028020102229
lowerback 11.983132044454464 1.1603745954928621 -0.10779310223817817
upperback -4.458652027529233 1.4569348216468185 -0.8554389720887724
thorax -11.56615402709165 0.6748059448862075 -1.1277215293828742
lowerneck -6.234705227977299 1.7550175084700321 4.834652723976642
upperneck 18.173331615825223 3.2895539758260526 -8.490925827122409
head 6.695788502490568 1.2242775566588757 -3.2938064794946804
rclavicle -2.1435602145598997E-15 -1.0999346562911001E-15
rhumerus 23.250629206104726 17.831237267148424 -48.4949043660191
rradius 74.89312270329921
rwrist 25.820762079499616
rhand -34.81823121119674 -58.10207366973295
rfingers 7.12502
rthumb -7.96097056668275 -88.01244559315042
lclavicle -1.1111267258775527E-15 -8.378165922896468E-16
lhumerus 22.439448173110712 -14.553664553130057 45.76867549966199
lradius 71.34544336782827
lwrist -21.38132925399578
lhand -45.272540969761636 -69.0177451797912
lfingers 7.125020000000012
lthumb -18.046676694764116 -39.7697093733086
rfemur -24.587729650980762 -0.8060558449284398 18.56476028554461
rtibia 45.02676770628154
rfoot -32.948452244891286 -17.873228296831535
rtoes -23.011995148640473
lfemur -26.46490441170119 1.8201982178763831 -15.476199316919566
ltibia 44.887945934722
lfoot -32.31625690513734 3.3503308176499953
ltoes -21.510028397292423
